# xmcd CD database file
#
# Track frame offsets:
#	150
#	17487
#	31650
#	50791
#	67784
#	89720
#	108464
#	123862
#	141818
#	158222
#	177873
#	191885
#	216547
#	234159
#	255242
#
# Disc length: 3804 seconds
#
# Revision: 1
# Processed by: cddbd v1.5.2PL0 Copyright (c) Steve Scherf et al.
# Submitted via: CDex 1.51
#
DISCID=c90eda0f
DTITLE=Various Artist - STTW-1269
DYEAR=1900
DGENRE=Blues
TTITLE0=Rainbow - Since You've Been Gone
TTITLE1=Specials The - A Message To You Rudy
TTITLE2=Commitments The - Mustang Sally
TTITLE3=Chris De Burgh - Patricia The Stripper
TTITLE4=Commitments The - Try A Little Tenderness
TTITLE5=Van Morrison - Bright Side Of The Road
TTITLE6=Chicago The Musical - All That Jazz
TTITLE7=Depeche Mode - Just Can't Get Enough
TTITLE8=Style Council The - Speak Like A Child
TTITLE9=Gloria Gaynor - I Am What I Am
TTITLE10=Fun Boy Three - Our Lips Are Sealed
TTITLE11=Sade - Smooth Operator
TTITLE12=Billy Idol - White Wedding
TTITLE13=Simple Minds - Don't You Forget About Me
TTITLE14=Bonnie Tyler - Holding Out For A Hero
EXTD=
EXTT0=
EXTT1=
EXTT2=
EXTT3=
EXTT4=
EXTT5=
EXTT6=
EXTT7=
EXTT8=
EXTT9=
EXTT10=
EXTT11=
EXTT12=
EXTT13=
EXTT14=
PLAYORDER=
